<?xml version="1.0" encoding="utf-8" standalone="no"?>
<!DOCTYPE svg PUBLIC "-//W3C//DTD SVG 1.1//EN"
  "http://www.w3.org/Graphics/SVG/1.1/DTD/svg11.dtd">
<svg height="345.6pt" version="1.1" viewBox="0 0 460.8 345.6" width="460.8pt" xmlns="http://www.w3.org/2000/svg" xmlns:xlink="http://www.w3.org/1999/xlink">
 <metadata>
  <rdf:RDF xmlns:cc="http://creativecommons.org/ns#" xmlns:dc="http://purl.org/dc/elements/1.1/" xmlns:rdf="http://www.w3.org/1999/02/22-rdf-syntax-ns#">
   <cc:Work>
    <dc:type rdf:resource="http://purl.org/dc/dcmitype/StillImage"/>
    <dc:date>2021-05-01T11:14:02.932997</dc:date>
    <dc:format>image/svg+xml</dc:format>
    <dc:creator>
     <cc:Agent>
      <dc:title>Matplotlib v3.4.1, https://matplotlib.org/</dc:title>
     </cc:Agent>
    </dc:creator>
   </cc:Work>
  </rdf:RDF>
 </metadata>
 <defs>
  <style type="text/css">*{stroke-linecap:butt;stroke-linejoin:round;}</style>
 </defs>
 <g id="figure_1">
  <g id="patch_1">
   <path d="M 0 345.6 
L 460.8 345.6 
L 460.8 0 
L 0 0 
z
" style="fill:#ffffff;"/>
  </g>
  <g id="axes_1">
   <g id="patch_2">
    <path d="M 57.6 307.584 
L 414.72 307.584 
L 414.72 41.472 
L 57.6 41.472 
z
" style="fill:#ffffff;"/>
   </g>
   <g id="matplotlib.axis_1">
    <g id="xtick_1">
     <g id="line2d_1">
      <path clip-path="url(#p64fad92071)" d="M 73.832727 307.584 
L 73.832727 41.472 
" style="fill:none;stroke:#b0b0b0;stroke-linecap:square;stroke-width:0.8;"/>
     </g>
     <g id="line2d_2">
      <defs>
       <path d="M 0 0 
L 0 3.5 
" id="m4b3ed40f83" style="stroke:#000000;stroke-width:0.8;"/>
      </defs>
      <g>
       <use style="stroke:#000000;stroke-width:0.8;" x="73.832727" xlink:href="#m4b3ed40f83" y="307.584"/>
      </g>
     </g>
     <g id="text_1">
      <!-- 0.00 -->
      <g transform="translate(62.699915 322.182437)scale(0.1 -0.1)">
       <defs>
        <path d="M 2034 4250 
Q 1547 4250 1301 3770 
Q 1056 3291 1056 2328 
Q 1056 1369 1301 889 
Q 1547 409 2034 409 
Q 2525 409 2770 889 
Q 3016 1369 3016 2328 
Q 3016 3291 2770 3770 
Q 2525 4250 2034 4250 
z
M 2034 4750 
Q 2819 4750 3233 4129 
Q 3647 3509 3647 2328 
Q 3647 1150 3233 529 
Q 2819 -91 2034 -91 
Q 1250 -91 836 529 
Q 422 1150 422 2328 
Q 422 3509 836 4129 
Q 1250 4750 2034 4750 
z
" id="DejaVuSans-30" transform="scale(0.015625)"/>
        <path d="M 684 794 
L 1344 794 
L 1344 0 
L 684 0 
L 684 794 
z
" id="DejaVuSans-2e" transform="scale(0.015625)"/>
       </defs>
       <use xlink:href="#DejaVuSans-30"/>
       <use x="63.623047" xlink:href="#DejaVuSans-2e"/>
       <use x="95.410156" xlink:href="#DejaVuSans-30"/>
       <use x="159.033203" xlink:href="#DejaVuSans-30"/>
      </g>
     </g>
    </g>
    <g id="xtick_2">
     <g id="line2d_3">
      <path clip-path="url(#p64fad92071)" d="M 114.414545 307.584 
L 114.414545 41.472 
" style="fill:none;stroke:#b0b0b0;stroke-linecap:square;stroke-width:0.8;"/>
     </g>
     <g id="line2d_4">
      <g>
       <use style="stroke:#000000;stroke-width:0.8;" x="114.414545" xlink:href="#m4b3ed40f83" y="307.584"/>
      </g>
     </g>
     <g id="text_2">
      <!-- 0.25 -->
      <g transform="translate(103.281733 322.182437)scale(0.1 -0.1)">
       <defs>
        <path d="M 1228 531 
L 3431 531 
L 3431 0 
L 469 0 
L 469 531 
Q 828 903 1448 1529 
Q 2069 2156 2228 2338 
Q 2531 2678 2651 2914 
Q 2772 3150 2772 3378 
Q 2772 3750 2511 3984 
Q 2250 4219 1831 4219 
Q 1534 4219 1204 4116 
Q 875 4013 500 3803 
L 500 4441 
Q 881 4594 1212 4672 
Q 1544 4750 1819 4750 
Q 2544 4750 2975 4387 
Q 3406 4025 3406 3419 
Q 3406 3131 3298 2873 
Q 3191 2616 2906 2266 
Q 2828 2175 2409 1742 
Q 1991 1309 1228 531 
z
" id="DejaVuSans-32" transform="scale(0.015625)"/>
        <path d="M 691 4666 
L 3169 4666 
L 3169 4134 
L 1269 4134 
L 1269 2991 
Q 1406 3038 1543 3061 
Q 1681 3084 1819 3084 
Q 2600 3084 3056 2656 
Q 3513 2228 3513 1497 
Q 3513 744 3044 326 
Q 2575 -91 1722 -91 
Q 1428 -91 1123 -41 
Q 819 9 494 109 
L 494 744 
Q 775 591 1075 516 
Q 1375 441 1709 441 
Q 2250 441 2565 725 
Q 2881 1009 2881 1497 
Q 2881 1984 2565 2268 
Q 2250 2553 1709 2553 
Q 1456 2553 1204 2497 
Q 953 2441 691 2322 
L 691 4666 
z
" id="DejaVuSans-35" transform="scale(0.015625)"/>
       </defs>
       <use xlink:href="#DejaVuSans-30"/>
       <use x="63.623047" xlink:href="#DejaVuSans-2e"/>
       <use x="95.410156" xlink:href="#DejaVuSans-32"/>
       <use x="159.033203" xlink:href="#DejaVuSans-35"/>
      </g>
     </g>
    </g>
    <g id="xtick_3">
     <g id="line2d_5">
      <path clip-path="url(#p64fad92071)" d="M 154.996364 307.584 
L 154.996364 41.472 
" style="fill:none;stroke:#b0b0b0;stroke-linecap:square;stroke-width:0.8;"/>
     </g>
     <g id="line2d_6">
      <g>
       <use style="stroke:#000000;stroke-width:0.8;" x="154.996364" xlink:href="#m4b3ed40f83" y="307.584"/>
      </g>
     </g>
     <g id="text_3">
      <!-- 0.50 -->
      <g transform="translate(143.863551 322.182437)scale(0.1 -0.1)">
       <use xlink:href="#DejaVuSans-30"/>
       <use x="63.623047" xlink:href="#DejaVuSans-2e"/>
       <use x="95.410156" xlink:href="#DejaVuSans-35"/>
       <use x="159.033203" xlink:href="#DejaVuSans-30"/>
      </g>
     </g>
    </g>
    <g id="xtick_4">
     <g id="line2d_7">
      <path clip-path="url(#p64fad92071)" d="M 195.578182 307.584 
L 195.578182 41.472 
" style="fill:none;stroke:#b0b0b0;stroke-linecap:square;stroke-width:0.8;"/>
     </g>
     <g id="line2d_8">
      <g>
       <use style="stroke:#000000;stroke-width:0.8;" x="195.578182" xlink:href="#m4b3ed40f83" y="307.584"/>
      </g>
     </g>
     <g id="text_4">
      <!-- 0.75 -->
      <g transform="translate(184.445369 322.182437)scale(0.1 -0.1)">
       <defs>
        <path d="M 525 4666 
L 3525 4666 
L 3525 4397 
L 1831 0 
L 1172 0 
L 2766 4134 
L 525 4134 
L 525 4666 
z
" id="DejaVuSans-37" transform="scale(0.015625)"/>
       </defs>
       <use xlink:href="#DejaVuSans-30"/>
       <use x="63.623047" xlink:href="#DejaVuSans-2e"/>
       <use x="95.410156" xlink:href="#DejaVuSans-37"/>
       <use x="159.033203" xlink:href="#DejaVuSans-35"/>
      </g>
     </g>
    </g>
    <g id="xtick_5">
     <g id="line2d_9">
      <path clip-path="url(#p64fad92071)" d="M 236.16 307.584 
L 236.16 41.472 
" style="fill:none;stroke:#b0b0b0;stroke-linecap:square;stroke-width:0.8;"/>
     </g>
     <g id="line2d_10">
      <g>
       <use style="stroke:#000000;stroke-width:0.8;" x="236.16" xlink:href="#m4b3ed40f83" y="307.584"/>
      </g>
     </g>
     <g id="text_5">
      <!-- 1.00 -->
      <g transform="translate(225.027187 322.182437)scale(0.1 -0.1)">
       <defs>
        <path d="M 794 531 
L 1825 531 
L 1825 4091 
L 703 3866 
L 703 4441 
L 1819 4666 
L 2450 4666 
L 2450 531 
L 3481 531 
L 3481 0 
L 794 0 
L 794 531 
z
" id="DejaVuSans-31" transform="scale(0.015625)"/>
       </defs>
       <use xlink:href="#DejaVuSans-31"/>
       <use x="63.623047" xlink:href="#DejaVuSans-2e"/>
       <use x="95.410156" xlink:href="#DejaVuSans-30"/>
       <use x="159.033203" xlink:href="#DejaVuSans-30"/>
      </g>
     </g>
    </g>
    <g id="xtick_6">
     <g id="line2d_11">
      <path clip-path="url(#p64fad92071)" d="M 276.741818 307.584 
L 276.741818 41.472 
" style="fill:none;stroke:#b0b0b0;stroke-linecap:square;stroke-width:0.8;"/>
     </g>
     <g id="line2d_12">
      <g>
       <use style="stroke:#000000;stroke-width:0.8;" x="276.741818" xlink:href="#m4b3ed40f83" y="307.584"/>
      </g>
     </g>
     <g id="text_6">
      <!-- 1.25 -->
      <g transform="translate(265.609006 322.182437)scale(0.1 -0.1)">
       <use xlink:href="#DejaVuSans-31"/>
       <use x="63.623047" xlink:href="#DejaVuSans-2e"/>
       <use x="95.410156" xlink:href="#DejaVuSans-32"/>
       <use x="159.033203" xlink:href="#DejaVuSans-35"/>
      </g>
     </g>
    </g>
    <g id="xtick_7">
     <g id="line2d_13">
      <path clip-path="url(#p64fad92071)" d="M 317.323636 307.584 
L 317.323636 41.472 
" style="fill:none;stroke:#b0b0b0;stroke-linecap:square;stroke-width:0.8;"/>
     </g>
     <g id="line2d_14">
      <g>
       <use style="stroke:#000000;stroke-width:0.8;" x="317.323636" xlink:href="#m4b3ed40f83" y="307.584"/>
      </g>
     </g>
     <g id="text_7">
      <!-- 1.50 -->
      <g transform="translate(306.190824 322.182437)scale(0.1 -0.1)">
       <use xlink:href="#DejaVuSans-31"/>
       <use x="63.623047" xlink:href="#DejaVuSans-2e"/>
       <use x="95.410156" xlink:href="#DejaVuSans-35"/>
       <use x="159.033203" xlink:href="#DejaVuSans-30"/>
      </g>
     </g>
    </g>
    <g id="xtick_8">
     <g id="line2d_15">
      <path clip-path="url(#p64fad92071)" d="M 357.905455 307.584 
L 357.905455 41.472 
" style="fill:none;stroke:#b0b0b0;stroke-linecap:square;stroke-width:0.8;"/>
     </g>
     <g id="line2d_16">
      <g>
       <use style="stroke:#000000;stroke-width:0.8;" x="357.905455" xlink:href="#m4b3ed40f83" y="307.584"/>
      </g>
     </g>
     <g id="text_8">
      <!-- 1.75 -->
      <g transform="translate(346.772642 322.182437)scale(0.1 -0.1)">
       <use xlink:href="#DejaVuSans-31"/>
       <use x="63.623047" xlink:href="#DejaVuSans-2e"/>
       <use x="95.410156" xlink:href="#DejaVuSans-37"/>
       <use x="159.033203" xlink:href="#DejaVuSans-35"/>
      </g>
     </g>
    </g>
    <g id="xtick_9">
     <g id="line2d_17">
      <path clip-path="url(#p64fad92071)" d="M 398.487273 307.584 
L 398.487273 41.472 
" style="fill:none;stroke:#b0b0b0;stroke-linecap:square;stroke-width:0.8;"/>
     </g>
     <g id="line2d_18">
      <g>
       <use style="stroke:#000000;stroke-width:0.8;" x="398.487273" xlink:href="#m4b3ed40f83" y="307.584"/>
      </g>
     </g>
     <g id="text_9">
      <!-- 2.00 -->
      <g transform="translate(387.35446 322.182437)scale(0.1 -0.1)">
       <use xlink:href="#DejaVuSans-32"/>
       <use x="63.623047" xlink:href="#DejaVuSans-2e"/>
       <use x="95.410156" xlink:href="#DejaVuSans-30"/>
       <use x="159.033203" xlink:href="#DejaVuSans-30"/>
      </g>
     </g>
    </g>
    <g id="text_10">
     <!-- $time\ (s)$ -->
     <g transform="translate(216.71 335.860562)scale(0.1 -0.1)">
      <defs>
       <path d="M 2706 3500 
L 2619 3053 
L 1472 3053 
L 1100 1153 
Q 1081 1047 1072 975 
Q 1063 903 1063 863 
Q 1063 663 1183 572 
Q 1303 481 1569 481 
L 2150 481 
L 2053 0 
L 1503 0 
Q 991 0 739 200 
Q 488 400 488 806 
Q 488 878 497 964 
Q 506 1050 525 1153 
L 897 3053 
L 409 3053 
L 500 3500 
L 978 3500 
L 1172 4494 
L 1747 4494 
L 1556 3500 
L 2706 3500 
z
" id="DejaVuSans-Oblique-74" transform="scale(0.015625)"/>
       <path d="M 1172 4863 
L 1747 4863 
L 1606 4134 
L 1031 4134 
L 1172 4863 
z
M 909 3500 
L 1484 3500 
L 800 0 
L 225 0 
L 909 3500 
z
" id="DejaVuSans-Oblique-69" transform="scale(0.015625)"/>
       <path d="M 5747 2113 
L 5338 0 
L 4763 0 
L 5166 2094 
Q 5191 2228 5203 2325 
Q 5216 2422 5216 2491 
Q 5216 2772 5059 2928 
Q 4903 3084 4622 3084 
Q 4203 3084 3875 2770 
Q 3547 2456 3450 1953 
L 3066 0 
L 2491 0 
L 2900 2094 
Q 2925 2209 2937 2307 
Q 2950 2406 2950 2484 
Q 2950 2769 2794 2926 
Q 2638 3084 2363 3084 
Q 1938 3084 1609 2770 
Q 1281 2456 1184 1953 
L 800 0 
L 225 0 
L 909 3500 
L 1484 3500 
L 1375 2956 
Q 1609 3263 1923 3423 
Q 2238 3584 2597 3584 
Q 2978 3584 3223 3384 
Q 3469 3184 3519 2828 
Q 3781 3197 4126 3390 
Q 4472 3584 4856 3584 
Q 5306 3584 5551 3325 
Q 5797 3066 5797 2591 
Q 5797 2488 5784 2364 
Q 5772 2241 5747 2113 
z
" id="DejaVuSans-Oblique-6d" transform="scale(0.015625)"/>
       <path d="M 3078 2063 
Q 3088 2113 3092 2166 
Q 3097 2219 3097 2272 
Q 3097 2653 2873 2875 
Q 2650 3097 2266 3097 
Q 1838 3097 1509 2826 
Q 1181 2556 1013 2059 
L 3078 2063 
z
M 3578 1613 
L 903 1613 
Q 884 1494 878 1425 
Q 872 1356 872 1306 
Q 872 872 1139 634 
Q 1406 397 1894 397 
Q 2269 397 2603 481 
Q 2938 566 3225 728 
L 3116 159 
Q 2806 34 2476 -28 
Q 2147 -91 1806 -91 
Q 1078 -91 686 257 
Q 294 606 294 1247 
Q 294 1794 489 2264 
Q 684 2734 1063 3103 
Q 1306 3334 1642 3459 
Q 1978 3584 2356 3584 
Q 2950 3584 3301 3228 
Q 3653 2872 3653 2272 
Q 3653 2128 3634 1964 
Q 3616 1800 3578 1613 
z
" id="DejaVuSans-Oblique-65" transform="scale(0.015625)"/>
       <path d="M 1984 4856 
Q 1566 4138 1362 3434 
Q 1159 2731 1159 2009 
Q 1159 1288 1364 580 
Q 1569 -128 1984 -844 
L 1484 -844 
Q 1016 -109 783 600 
Q 550 1309 550 2009 
Q 550 2706 781 3412 
Q 1013 4119 1484 4856 
L 1984 4856 
z
" id="DejaVuSans-28" transform="scale(0.015625)"/>
       <path d="M 3200 3397 
L 3091 2853 
Q 2863 2978 2609 3040 
Q 2356 3103 2088 3103 
Q 1634 3103 1373 2948 
Q 1113 2794 1113 2528 
Q 1113 2219 1719 2053 
Q 1766 2041 1788 2034 
L 1972 1978 
Q 2547 1819 2739 1644 
Q 2931 1469 2931 1166 
Q 2931 609 2489 259 
Q 2047 -91 1331 -91 
Q 1053 -91 747 -37 
Q 441 16 72 128 
L 184 722 
Q 500 559 806 475 
Q 1113 391 1394 391 
Q 1816 391 2080 572 
Q 2344 753 2344 1031 
Q 2344 1331 1650 1516 
L 1591 1531 
L 1394 1581 
Q 956 1697 753 1886 
Q 550 2075 550 2369 
Q 550 2928 970 3256 
Q 1391 3584 2113 3584 
Q 2397 3584 2667 3537 
Q 2938 3491 3200 3397 
z
" id="DejaVuSans-Oblique-73" transform="scale(0.015625)"/>
       <path d="M 513 4856 
L 1013 4856 
Q 1481 4119 1714 3412 
Q 1947 2706 1947 2009 
Q 1947 1309 1714 600 
Q 1481 -109 1013 -844 
L 513 -844 
Q 928 -128 1133 580 
Q 1338 1288 1338 2009 
Q 1338 2731 1133 3434 
Q 928 4138 513 4856 
z
" id="DejaVuSans-29" transform="scale(0.015625)"/>
      </defs>
      <use transform="translate(0 0.015625)" xlink:href="#DejaVuSans-Oblique-74"/>
      <use transform="translate(39.208984 0.015625)" xlink:href="#DejaVuSans-Oblique-69"/>
      <use transform="translate(66.992188 0.015625)" xlink:href="#DejaVuSans-Oblique-6d"/>
      <use transform="translate(164.404297 0.015625)" xlink:href="#DejaVuSans-Oblique-65"/>
      <use transform="translate(258.398113 0.015625)" xlink:href="#DejaVuSans-28"/>
      <use transform="translate(297.411785 0.015625)" xlink:href="#DejaVuSans-Oblique-73"/>
      <use transform="translate(349.511394 0.015625)" xlink:href="#DejaVuSans-29"/>
     </g>
    </g>
    <g id="text_11">
     <!-- 1e−7 -->
     <g transform="translate(387.462188 334.860562)scale(0.1 -0.1)">
      <defs>
       <path d="M 3597 1894 
L 3597 1613 
L 953 1613 
Q 991 1019 1311 708 
Q 1631 397 2203 397 
Q 2534 397 2845 478 
Q 3156 559 3463 722 
L 3463 178 
Q 3153 47 2828 -22 
Q 2503 -91 2169 -91 
Q 1331 -91 842 396 
Q 353 884 353 1716 
Q 353 2575 817 3079 
Q 1281 3584 2069 3584 
Q 2775 3584 3186 3129 
Q 3597 2675 3597 1894 
z
M 3022 2063 
Q 3016 2534 2758 2815 
Q 2500 3097 2075 3097 
Q 1594 3097 1305 2825 
Q 1016 2553 972 2059 
L 3022 2063 
z
" id="DejaVuSans-65" transform="scale(0.015625)"/>
       <path d="M 678 2272 
L 4684 2272 
L 4684 1741 
L 678 1741 
L 678 2272 
z
" id="DejaVuSans-2212" transform="scale(0.015625)"/>
      </defs>
      <use xlink:href="#DejaVuSans-31"/>
      <use x="63.623047" xlink:href="#DejaVuSans-65"/>
      <use x="125.146484" xlink:href="#DejaVuSans-2212"/>
      <use x="208.935547" xlink:href="#DejaVuSans-37"/>
     </g>
    </g>
   </g>
   <g id="matplotlib.axis_2">
    <g id="ytick_1">
     <g id="line2d_19">
      <path clip-path="url(#p64fad92071)" d="M 57.6 306.524372 
L 414.72 306.524372 
" style="fill:none;stroke:#b0b0b0;stroke-linecap:square;stroke-width:0.8;"/>
     </g>
     <g id="line2d_20">
      <defs>
       <path d="M 0 0 
L -3.5 0 
" id="m86d4d4be61" style="stroke:#000000;stroke-width:0.8;"/>
      </defs>
      <g>
       <use style="stroke:#000000;stroke-width:0.8;" x="57.6" xlink:href="#m86d4d4be61" y="306.524372"/>
      </g>
     </g>
     <g id="text_12">
      <!-- −0.100 -->
      <g transform="translate(13.592188 310.32359)scale(0.1 -0.1)">
       <use xlink:href="#DejaVuSans-2212"/>
       <use x="83.789062" xlink:href="#DejaVuSans-30"/>
       <use x="147.412109" xlink:href="#DejaVuSans-2e"/>
       <use x="179.199219" xlink:href="#DejaVuSans-31"/>
       <use x="242.822266" xlink:href="#DejaVuSans-30"/>
       <use x="306.445312" xlink:href="#DejaVuSans-30"/>
      </g>
     </g>
    </g>
    <g id="ytick_2">
     <g id="line2d_21">
      <path clip-path="url(#p64fad92071)" d="M 57.6 273.529314 
L 414.72 273.529314 
" style="fill:none;stroke:#b0b0b0;stroke-linecap:square;stroke-width:0.8;"/>
     </g>
     <g id="line2d_22">
      <g>
       <use style="stroke:#000000;stroke-width:0.8;" x="57.6" xlink:href="#m86d4d4be61" y="273.529314"/>
      </g>
     </g>
     <g id="text_13">
      <!-- −0.075 -->
      <g transform="translate(13.592188 277.328533)scale(0.1 -0.1)">
       <use xlink:href="#DejaVuSans-2212"/>
       <use x="83.789062" xlink:href="#DejaVuSans-30"/>
       <use x="147.412109" xlink:href="#DejaVuSans-2e"/>
       <use x="179.199219" xlink:href="#DejaVuSans-30"/>
       <use x="242.822266" xlink:href="#DejaVuSans-37"/>
       <use x="306.445312" xlink:href="#DejaVuSans-35"/>
      </g>
     </g>
    </g>
    <g id="ytick_3">
     <g id="line2d_23">
      <path clip-path="url(#p64fad92071)" d="M 57.6 240.534256 
L 414.72 240.534256 
" style="fill:none;stroke:#b0b0b0;stroke-linecap:square;stroke-width:0.8;"/>
     </g>
     <g id="line2d_24">
      <g>
       <use style="stroke:#000000;stroke-width:0.8;" x="57.6" xlink:href="#m86d4d4be61" y="240.534256"/>
      </g>
     </g>
     <g id="text_14">
      <!-- −0.050 -->
      <g transform="translate(13.592188 244.333475)scale(0.1 -0.1)">
       <use xlink:href="#DejaVuSans-2212"/>
       <use x="83.789062" xlink:href="#DejaVuSans-30"/>
       <use x="147.412109" xlink:href="#DejaVuSans-2e"/>
       <use x="179.199219" xlink:href="#DejaVuSans-30"/>
       <use x="242.822266" xlink:href="#DejaVuSans-35"/>
       <use x="306.445312" xlink:href="#DejaVuSans-30"/>
      </g>
     </g>
    </g>
    <g id="ytick_4">
     <g id="line2d_25">
      <path clip-path="url(#p64fad92071)" d="M 57.6 207.539199 
L 414.72 207.539199 
" style="fill:none;stroke:#b0b0b0;stroke-linecap:square;stroke-width:0.8;"/>
     </g>
     <g id="line2d_26">
      <g>
       <use style="stroke:#000000;stroke-width:0.8;" x="57.6" xlink:href="#m86d4d4be61" y="207.539199"/>
      </g>
     </g>
     <g id="text_15">
      <!-- −0.025 -->
      <g transform="translate(13.592188 211.338418)scale(0.1 -0.1)">
       <use xlink:href="#DejaVuSans-2212"/>
       <use x="83.789062" xlink:href="#DejaVuSans-30"/>
       <use x="147.412109" xlink:href="#DejaVuSans-2e"/>
       <use x="179.199219" xlink:href="#DejaVuSans-30"/>
       <use x="242.822266" xlink:href="#DejaVuSans-32"/>
       <use x="306.445312" xlink:href="#DejaVuSans-35"/>
      </g>
     </g>
    </g>
    <g id="ytick_5">
     <g id="line2d_27">
      <path clip-path="url(#p64fad92071)" d="M 57.6 174.544141 
L 414.72 174.544141 
" style="fill:none;stroke:#b0b0b0;stroke-linecap:square;stroke-width:0.8;"/>
     </g>
     <g id="line2d_28">
      <g>
       <use style="stroke:#000000;stroke-width:0.8;" x="57.6" xlink:href="#m86d4d4be61" y="174.544141"/>
      </g>
     </g>
     <g id="text_16">
      <!-- 0.000 -->
      <g transform="translate(21.971875 178.34336)scale(0.1 -0.1)">
       <use xlink:href="#DejaVuSans-30"/>
       <use x="63.623047" xlink:href="#DejaVuSans-2e"/>
       <use x="95.410156" xlink:href="#DejaVuSans-30"/>
       <use x="159.033203" xlink:href="#DejaVuSans-30"/>
       <use x="222.65625" xlink:href="#DejaVuSans-30"/>
      </g>
     </g>
    </g>
    <g id="ytick_6">
     <g id="line2d_29">
      <path clip-path="url(#p64fad92071)" d="M 57.6 141.549084 
L 414.72 141.549084 
" style="fill:none;stroke:#b0b0b0;stroke-linecap:square;stroke-width:0.8;"/>
     </g>
     <g id="line2d_30">
      <g>
       <use style="stroke:#000000;stroke-width:0.8;" x="57.6" xlink:href="#m86d4d4be61" y="141.549084"/>
      </g>
     </g>
     <g id="text_17">
      <!-- 0.025 -->
      <g transform="translate(21.971875 145.348302)scale(0.1 -0.1)">
       <use xlink:href="#DejaVuSans-30"/>
       <use x="63.623047" xlink:href="#DejaVuSans-2e"/>
       <use x="95.410156" xlink:href="#DejaVuSans-30"/>
       <use x="159.033203" xlink:href="#DejaVuSans-32"/>
       <use x="222.65625" xlink:href="#DejaVuSans-35"/>
      </g>
     </g>
    </g>
    <g id="ytick_7">
     <g id="line2d_31">
      <path clip-path="url(#p64fad92071)" d="M 57.6 108.554026 
L 414.72 108.554026 
" style="fill:none;stroke:#b0b0b0;stroke-linecap:square;stroke-width:0.8;"/>
     </g>
     <g id="line2d_32">
      <g>
       <use style="stroke:#000000;stroke-width:0.8;" x="57.6" xlink:href="#m86d4d4be61" y="108.554026"/>
      </g>
     </g>
     <g id="text_18">
      <!-- 0.050 -->
      <g transform="translate(21.971875 112.353245)scale(0.1 -0.1)">
       <use xlink:href="#DejaVuSans-30"/>
       <use x="63.623047" xlink:href="#DejaVuSans-2e"/>
       <use x="95.410156" xlink:href="#DejaVuSans-30"/>
       <use x="159.033203" xlink:href="#DejaVuSans-35"/>
       <use x="222.65625" xlink:href="#DejaVuSans-30"/>
      </g>
     </g>
    </g>
    <g id="ytick_8">
     <g id="line2d_33">
      <path clip-path="url(#p64fad92071)" d="M 57.6 75.558968 
L 414.72 75.558968 
" style="fill:none;stroke:#b0b0b0;stroke-linecap:square;stroke-width:0.8;"/>
     </g>
     <g id="line2d_34">
      <g>
       <use style="stroke:#000000;stroke-width:0.8;" x="57.6" xlink:href="#m86d4d4be61" y="75.558968"/>
      </g>
     </g>
     <g id="text_19">
      <!-- 0.075 -->
      <g transform="translate(21.971875 79.358187)scale(0.1 -0.1)">
       <use xlink:href="#DejaVuSans-30"/>
       <use x="63.623047" xlink:href="#DejaVuSans-2e"/>
       <use x="95.410156" xlink:href="#DejaVuSans-30"/>
       <use x="159.033203" xlink:href="#DejaVuSans-37"/>
       <use x="222.65625" xlink:href="#DejaVuSans-35"/>
      </g>
     </g>
    </g>
    <g id="ytick_9">
     <g id="line2d_35">
      <path clip-path="url(#p64fad92071)" d="M 57.6 42.563911 
L 414.72 42.563911 
" style="fill:none;stroke:#b0b0b0;stroke-linecap:square;stroke-width:0.8;"/>
     </g>
     <g id="line2d_36">
      <g>
       <use style="stroke:#000000;stroke-width:0.8;" x="57.6" xlink:href="#m86d4d4be61" y="42.563911"/>
      </g>
     </g>
     <g id="text_20">
      <!-- 0.100 -->
      <g transform="translate(21.971875 46.363129)scale(0.1 -0.1)">
       <use xlink:href="#DejaVuSans-30"/>
       <use x="63.623047" xlink:href="#DejaVuSans-2e"/>
       <use x="95.410156" xlink:href="#DejaVuSans-31"/>
       <use x="159.033203" xlink:href="#DejaVuSans-30"/>
       <use x="222.65625" xlink:href="#DejaVuSans-30"/>
      </g>
     </g>
    </g>
    <g id="text_21">
     <!-- $I(C1) $ -->
     <g transform="translate(7.5125 186.578)rotate(-90)scale(0.1 -0.1)">
      <defs>
       <path d="M 1081 4666 
L 1716 4666 
L 806 0 
L 172 0 
L 1081 4666 
z
" id="DejaVuSans-Oblique-49" transform="scale(0.015625)"/>
       <path d="M 4447 4306 
L 4319 3641 
Q 4019 3944 3683 4091 
Q 3347 4238 2956 4238 
Q 2422 4238 2017 3981 
Q 1613 3725 1319 3200 
Q 1131 2863 1032 2486 
Q 934 2109 934 1728 
Q 934 1091 1264 756 
Q 1594 422 2222 422 
Q 2656 422 3056 561 
Q 3456 700 3834 978 
L 3688 231 
Q 3316 72 2936 -9 
Q 2556 -91 2175 -91 
Q 1278 -91 773 396 
Q 269 884 269 1753 
Q 269 2309 461 2846 
Q 653 3384 1013 3828 
Q 1394 4300 1883 4525 
Q 2372 4750 3022 4750 
Q 3422 4750 3780 4639 
Q 4138 4528 4447 4306 
z
" id="DejaVuSans-Oblique-43" transform="scale(0.015625)"/>
      </defs>
      <use transform="translate(0 0.125)" xlink:href="#DejaVuSans-Oblique-49"/>
      <use transform="translate(29.492188 0.125)" xlink:href="#DejaVuSans-28"/>
      <use transform="translate(68.505859 0.125)" xlink:href="#DejaVuSans-Oblique-43"/>
      <use transform="translate(138.330078 0.125)" xlink:href="#DejaVuSans-31"/>
      <use transform="translate(201.953125 0.125)" xlink:href="#DejaVuSans-29"/>
     </g>
    </g>
   </g>
   <g id="line2d_37">
    <path clip-path="url(#p64fad92071)" d="M 73.832727 174.544141 
L 74.007418 174.435945 
L 74.282813 173.882589 
L 74.618592 172.589246 
L 75.186784 169.162936 
L 76.13792 161.171046 
L 77.406102 150.216199 
L 78.040193 146.560993 
L 78.357239 145.5219 
L 78.674284 145.106809 
L 78.991329 145.371574 
L 79.308375 146.356015 
L 79.62542 148.082778 
L 80.259511 153.764421 
L 80.893602 162.238501 
L 81.844739 179.11977 
L 84.381102 228.181818 
L 85.015193 235.937187 
L 85.332239 238.512425 
L 85.649284 240.150603 
L 85.918499 240.708074 
L 86.217757 240.362233 
L 86.534803 238.94796 
L 86.851848 236.437748 
L 87.485939 228.150446 
L 88.12003 215.820127 
L 89.071166 191.225175 
L 91.924575 108.151486 
L 92.558666 95.80013 
L 93.192757 88.016609 
L 93.509803 86.055039 
L 93.826848 85.389027 
L 94.083067 85.87907 
L 94.352047 87.480954 
L 94.669093 90.64089 
L 95.303184 100.884694 
L 95.937275 116.035602 
L 96.888411 146.02811 
L 99.74182 246.964954 
L 100.375911 262.432588 
L 101.010002 272.729751 
L 101.327047 275.69734 
L 101.644093 277.125881 
L 101.961138 277.043156 
L 102.22862 275.758579 
L 102.479261 273.424601 
L 103.113352 263.315087 
L 103.747443 247.675654 
L 104.698579 215.748686 
L 108.186079 84.920841 
L 108.82017 71.821222 
L 109.137216 67.543017 
L 109.454261 64.883708 
L 109.771307 63.89086 
L 110.088352 64.529856 
L 110.36265 66.414111 
L 110.610091 69.296744 
L 111.244181 81.085614 
L 111.878272 98.571358 
L 112.829409 133.309941 
L 115.999863 261.116573 
L 116.633954 277.01449 
L 117.268045 286.76998 
L 117.585091 289.134129 
L 117.902136 289.76081 
L 118.219181 288.682611 
L 118.502566 286.270765 
L 118.764805 282.726647 
L 119.398896 269.599919 
L 120.032987 250.731973 
L 120.984123 214.071639 
L 123.837532 93.590477 
L 124.471623 75.200088 
L 125.105714 62.763868 
L 125.42276 59.034001 
L 125.739805 57.049718 
L 126.056851 56.843142 
L 126.373896 58.419461 
L 126.690942 61.743977 
L 127.315456 73.268451 
L 127.949547 91.046611 
L 128.900683 126.815946 
L 132.071138 261.178987 
L 132.705229 278.521295 
L 133.33932 289.62334 
L 133.656365 292.606476 
L 133.973411 293.807298 
L 134.290456 293.206577 
L 134.607501 290.828755 
L 134.912523 286.86457 
L 135.546614 273.662416 
L 136.180705 254.492406 
L 137.131842 217.112543 
L 139.985251 93.465056 
L 140.619342 74.358067 
L 141.253432 61.261576 
L 141.570478 57.230465 
L 141.887523 54.967901 
L 142.204569 54.508636 
L 142.521614 55.771766 
L 142.775687 58.102022 
L 143.365207 68.044727 
L 143.999298 84.758043 
L 144.950434 119.562774 
L 146.535661 191.276225 
L 147.803843 245.570266 
L 148.75498 275.867278 
L 149.389071 288.696073 
L 149.706116 292.57385 
L 150.023161 294.67359 
L 150.340207 294.963339 
L 150.657252 293.509775 
L 150.923435 290.916258 
L 151.493237 280.962216 
L 152.127328 264.002057 
L 153.078464 228.888347 
L 154.663691 156.911873 
L 155.931873 102.672631 
L 156.88301 72.556642 
L 157.517101 59.899026 
L 157.834146 56.117634 
L 158.151191 54.119281 
L 158.468237 53.934232 
L 158.785282 55.465929 
L 159.031443 57.90941 
L 159.606495 67.990404 
L 160.240586 85.002088 
L 161.191722 120.189575 
L 162.776949 192.260745 
L 164.045131 246.539832 
L 164.996268 276.664544 
L 165.630358 289.319336 
L 165.947404 293.097165 
L 166.264449 295.090726 
L 166.581495 295.269903 
L 166.89854 293.734524 
L 167.142539 291.307935 
L 167.7209 281.16111 
L 168.354991 264.121024 
L 169.306128 228.894564 
L 170.891355 156.776976 
L 172.159537 102.481114 
L 173.110673 72.354673 
L 173.744764 59.702784 
L 174.06181 55.927358 
L 174.378855 53.936726 
L 174.6959 53.760889 
L 175.012946 55.336984 
L 175.283276 58.073211 
L 175.846324 68.127584 
L 176.480415 85.279154 
L 177.431551 120.631933 
L 179.333824 207.316944 
L 180.28496 247.028396 
L 181.236096 277.024626 
L 181.870187 289.567552 
L 182.187233 293.284339 
L 182.504278 295.214775 
L 182.821324 295.329782 
L 183.138369 293.685084 
L 183.414391 290.820598 
L 183.981685 280.528265 
L 184.615776 263.184677 
L 185.566912 227.619357 
L 189.054412 80.103364 
L 189.688503 64.563986 
L 190.322594 55.61731 
L 190.63964 53.800338 
L 190.956685 53.799691 
L 191.27373 55.61537 
L 191.590776 59.180961 
L 192.195777 70.847023 
L 192.829867 89.093277 
L 193.781004 125.639118 
L 196.951458 262.254533 
L 197.585549 279.871703 
L 198.21964 291.175388 
L 198.536686 294.231865 
L 198.853731 295.488 
L 199.170777 294.924906 
L 199.487822 292.551044 
L 199.804867 288.402113 
L 200.438958 275.054504 
L 201.073049 255.682129 
L 202.024186 217.949298 
L 204.877595 93.190841 
L 205.511686 73.871931 
L 206.145777 60.587289 
L 206.462822 56.472278 
L 206.779867 54.133245 
L 207.096913 53.60539 
L 207.413958 54.812138 
L 207.671098 57.159499 
L 208.282915 67.512107 
L 208.917006 84.422061 
L 209.868142 119.507989 
L 211.45337 191.582987 
L 212.721552 246.032051 
L 213.672688 276.367113 
L 214.306779 289.18956 
L 214.623824 293.056238 
L 214.94087 295.140364 
L 215.257915 295.410594 
L 215.574961 293.945983 
L 215.832849 291.416397 
L 216.416156 281.199781 
L 217.050247 264.129194 
L 218.001383 228.865541 
L 219.586611 156.713665 
L 220.854793 102.413329 
L 221.805929 72.292616 
L 222.44002 59.64693 
L 222.757065 55.874948 
L 223.074111 53.887828 
L 223.391156 53.715462 
L 223.708202 55.292375 
L 223.976694 58.01192 
L 224.542735 68.119282 
L 225.176826 85.286584 
L 226.127962 120.656837 
L 228.030235 207.353767 
L 228.981371 247.062197 
L 229.932507 277.052434 
L 230.566598 289.590833 
L 230.883644 293.30543 
L 231.200689 295.233793 
L 231.517735 295.346926 
L 231.83478 293.702123 
L 232.10969 290.852736 
L 232.675172 280.606398 
L 233.309263 263.288757 
L 234.260399 227.753067 
L 236.162672 141.00807 
L 237.113808 101.423319 
L 237.747899 80.197084 
L 238.38199 64.625581 
L 239.016081 55.642096 
L 239.333127 53.805591 
L 239.650172 53.785055 
L 239.967217 55.53601 
L 240.252224 58.616349 
L 240.834149 69.456994 
L 241.46824 87.168491 
L 242.419376 123.13507 
L 245.906876 270.127022 
L 246.540967 285.280768 
L 247.175058 293.797465 
L 247.492103 295.390876 
L 247.809149 295.166681 
L 248.126194 293.128286 
L 248.44324 289.313358 
L 249.072051 276.699928 
L 249.706142 257.892983 
L 250.657278 220.752202 
L 253.827732 84.84449 
L 254.461823 67.809168 
L 255.095914 57.171139 
L 255.41296 54.466548 
L 255.730005 53.568 
L 256.047051 54.489011 
L 256.364096 57.18963 
L 256.662123 61.363676 
L 257.296214 75.178773 
L 257.930305 94.923332 
L 258.881441 133.037692 
L 261.73485 257.381295 
L 262.368941 276.32129 
L 263.003032 289.161132 
L 263.320078 293.037299 
L 263.637123 295.131257 
L 263.954168 295.411478 
L 264.271214 293.958626 
L 264.527891 291.449524 
L 265.113171 281.219578 
L 265.747262 264.158955 
L 266.698398 228.906904 
L 268.283625 156.761758 
L 269.551807 102.453873 
L 270.502943 72.320767 
L 271.137034 59.664444 
L 271.45408 55.886655 
L 271.771125 53.893529 
L 272.088171 53.715066 
L 272.405216 55.284799 
L 272.672975 57.991436 
L 273.24021 68.107431 
L 273.874301 85.268582 
L 274.825437 120.631642 
L 276.72771 207.32481 
L 277.678846 247.037332 
L 278.629983 277.035118 
L 279.264074 289.580011 
L 279.581119 293.298158 
L 279.898165 295.230177 
L 280.21521 295.347045 
L 280.532256 293.70661 
L 280.806721 290.866963 
L 281.371481 280.646071 
L 282.005572 263.345653 
L 282.956708 227.82918 
L 284.858981 141.090769 
L 285.810117 101.49245 
L 286.444208 80.251803 
L 287.078299 64.662549 
L 287.71239 55.659055 
L 288.029435 53.812084 
L 288.346481 53.780963 
L 288.663526 55.51975 
L 288.947356 58.572862 
L 289.527365 69.34365 
L 290.161456 87.0096 
L 291.112592 122.926383 
L 294.600092 269.984378 
L 295.234183 285.186666 
L 295.868274 293.757594 
L 296.18532 295.379209 
L 296.502365 295.183429 
L 296.819411 293.173186 
L 297.136456 289.389933 
L 297.76215 276.90096 
L 298.39624 258.165601 
L 299.347377 221.100524 
L 302.517831 85.098711 
L 303.151922 67.987936 
L 303.786013 57.263724 
L 304.103059 54.513599 
L 304.420104 53.568805 
L 304.73715 54.443557 
L 305.054195 57.105559 
L 305.357297 61.321403 
L 305.991388 75.098978 
L 306.625479 94.817788 
L 307.576616 132.905738 
L 310.430025 257.27843 
L 311.064116 276.24486 
L 311.698206 289.115717 
L 312.015252 293.00854 
L 312.332297 295.119577 
L 312.649343 295.417074 
L 312.966388 293.984072 
L 313.221176 291.507872 
L 313.809532 281.259502 
L 314.443623 264.21601 
L 315.394759 228.982964 
L 316.979986 156.84616 
L 318.248168 102.522503 
L 319.199305 72.366578 
L 319.833396 59.691394 
L 320.150441 55.903483 
L 320.467486 53.899996 
L 320.784532 53.711053 
L 321.101577 55.26879 
L 321.368193 57.954719 
L 321.93729 68.083041 
L 322.571381 85.233858 
L 323.522517 120.585476 
L 325.42479 207.275067 
L 326.375926 246.995903 
L 327.327063 277.007574 
L 327.961154 289.563909 
L 328.278199 293.28818 
L 328.595245 295.226494 
L 328.91229 295.349685 
L 329.229336 293.716535 
L 329.503109 290.892382 
L 330.066741 280.711599 
L 330.700832 263.438383 
L 331.651969 227.951855 
L 333.554241 141.222221 
L 334.505378 101.601532 
L 335.139469 80.337577 
L 335.77356 64.719881 
L 336.407651 55.684514 
L 336.724696 53.820901 
L 337.041741 53.773005 
L 337.358787 55.492549 
L 337.640782 58.503282 
L 338.217803 69.165318 
L 338.851894 86.759985 
L 339.80303 122.598993 
L 343.29053 269.761226 
L 343.924621 285.039574 
L 344.558712 293.695379 
L 344.875757 295.361167 
L 345.192803 295.209825 
L 345.509848 293.243623 
L 345.826894 289.509863 
L 346.447725 277.213951 
L 347.081816 258.590643 
L 348.032953 221.64419 
L 351.203407 85.496921 
L 351.837498 68.268526 
L 352.471589 57.409852 
L 352.788634 54.588696 
L 353.10568 53.571722 
L 353.422725 54.374241 
L 353.739771 56.975914 
L 354.050788 61.254911 
L 354.684879 74.973887 
L 355.318969 94.652443 
L 356.270106 132.699215 
L 359.123515 257.117784 
L 359.757606 276.12555 
L 360.391697 289.044884 
L 360.708742 292.96372 
L 361.025788 295.101456 
L 361.342833 295.425916 
L 361.659879 294.023957 
L 361.911718 291.598688 
L 362.504874 281.322272 
L 363.138964 264.305493 
L 364.090101 229.102036 
L 365.675328 156.978074 
L 366.94351 102.629671 
L 367.894646 72.437992 
L 368.528737 59.733324 
L 368.845783 55.929601 
L 369.162828 53.909921 
L 369.479874 53.704652 
L 369.796919 55.243595 
L 370.06175 57.897387 
L 370.633753 68.044674 
L 371.267844 85.179377 
L 372.21898 120.513203 
L 374.121253 207.197357 
L 375.072389 246.931272 
L 376.023526 276.964667 
L 376.657617 289.538899 
L 376.974662 293.272765 
L 377.291708 295.220885 
L 377.608753 295.353974 
L 377.925798 293.77136 
L 378.170627 291.301402 
L 378.747334 281.10362 
L 379.381425 263.994442 
L 380.332561 228.688978 
L 382.234834 142.014129 
L 383.18597 102.259796 
L 384.137107 72.192166 
L 384.771197 59.589598 
L 385.088243 55.840554 
L 385.405288 53.876847 
L 385.722334 53.728013 
L 386.039379 55.331691 
L 386.310325 58.09673 
L 386.872371 68.17837 
L 387.506462 85.368742 
L 388.457598 120.763807 
L 390.359871 207.465871 
L 391.311007 247.154174 
L 392.262143 277.112181 
L 392.896234 289.624488 
L 393.21328 293.325227 
L 393.530325 295.239481 
L 393.847371 295.338427 
L 394.164416 293.677495 
L 394.44081 290.794295 
L 395.00871 280.460929 
L 395.642801 263.084663 
L 396.593937 227.484962 
L 398.487273 140.998383 
L 398.487273 140.998383 
" style="fill:none;stroke:#1f77b4;stroke-linecap:square;stroke-width:1.5;"/>
   </g>
   <g id="patch_3">
    <path d="M 57.6 307.584 
L 57.6 41.472 
" style="fill:none;stroke:#000000;stroke-linecap:square;stroke-linejoin:miter;stroke-width:0.8;"/>
   </g>
   <g id="patch_4">
    <path d="M 414.72 307.584 
L 414.72 41.472 
" style="fill:none;stroke:#000000;stroke-linecap:square;stroke-linejoin:miter;stroke-width:0.8;"/>
   </g>
   <g id="patch_5">
    <path d="M 57.6 307.584 
L 414.72 307.584 
" style="fill:none;stroke:#000000;stroke-linecap:square;stroke-linejoin:miter;stroke-width:0.8;"/>
   </g>
   <g id="patch_6">
    <path d="M 57.6 41.472 
L 414.72 41.472 
" style="fill:none;stroke:#000000;stroke-linecap:square;stroke-linejoin:miter;stroke-width:0.8;"/>
   </g>
  </g>
 </g>
 <defs>
  <clipPath id="p64fad92071">
   <rect height="266.112" width="357.12" x="57.6" y="41.472"/>
  </clipPath>
 </defs>
</svg>
